<svg width="278" height="278" viewBox="0 0 278 278" fill="none" xmlns="http://www.w3.org/2000/svg">
<g clip-path="url(#clip0_303_189)">
<path d="M193.55 0.279999H84.4403C37.9503 0.279999 0.280273 37.95 0.280273 84.44V193.55C0.280273 240.04 37.9503 277.71 84.4403 277.71H193.55C240.04 277.71 277.71 240.04 277.71 193.55V84.44C277.72 37.95 240.04 0.279999 193.55 0.279999Z" fill="#121B3A"/>
<path d="M156.38 109.08L97.2403 61.01C85.6503 51.6 68.5904 53.34 59.1804 64.93C49.7404 76.52 51.5103 93.56 63.1203 102.99L122.26 151.06C133.85 160.47 150.91 158.73 160.32 147.14C169.76 135.55 167.99 118.51 156.38 109.08V109.08ZM79.9203 101.41C69.1903 101.41 60.4703 92.7 60.4703 81.96C60.4703 71.22 69.1803 62.51 79.9203 62.51C90.6603 62.51 99.3703 71.22 99.3703 81.96C99.3703 92.7 90.6603 101.41 79.9203 101.41Z" fill="url(#paint0_linear_303_189)"/>
<path d="M112.3 206.48C112.3 221.68 124.8 233.93 140.06 233.54C154.82 233.16 166.39 220.66 166.39 205.9V130.28C166.39 115.08 153.89 102.83 138.63 103.22C123.87 103.6 112.3 116.1 112.3 130.86V206.48V206.48Z" fill="#F4F5FB"/>
<path d="M139.35 103.21C154.29 103.21 166.39 115.32 166.39 130.25V148.28C166.39 163.22 154.28 175.32 139.35 175.32C124.41 175.32 112.31 163.21 112.31 148.28V130.25C112.31 115.31 124.42 103.21 139.35 103.21Z" fill="#C7C6E2"/>
<path d="M122.43 109.08C110.81 118.52 109.05 135.55 118.49 147.14C127.9 158.73 144.96 160.47 156.55 151.06L215.69 102.99C227.31 93.55 229.07 76.52 219.63 64.93C210.22 53.34 193.16 51.6 181.57 61.01L122.43 109.08V109.08Z" fill="#F4F5FB"/>
</g>
<defs>
<linearGradient id="paint0_linear_303_189" x1="123.28" y1="117.28" x2="63.2803" y2="63.28" gradientUnits="userSpaceOnUse">
<stop stop-color="#12C9BE"/>
<stop offset="1" stop-color="#6A9AF8"/>
</linearGradient>
<clipPath id="clip0_303_189">
<rect width="277.44" height="277.44" fill="white" transform="translate(0.280273 0.279999)"/>
</clipPath>
</defs>
</svg>
