<svg width="556" height="102" viewBox="0 0 556 102" fill="none" xmlns="http://www.w3.org/2000/svg">
<g clip-path="url(#clip0_303_109)">
<path d="M89.4 0.945007H67.87L44.84 39.125L21.79 0.945007H0L35.27 57.535V99.555H54.27V56.695L89.4 0.945007Z" fill="#121B3A"/>
<path d="M127.43 70.645C127.43 74.855 126.36 78.125 124.25 80.475C122.11 82.815 119.15 83.975 115.36 83.975C112.85 83.975 110.69 83.465 108.83 82.425C106.97 81.405 105.59 79.915 104.66 77.935C103.73 75.875 103.28 73.445 103.28 70.645V31.815H84.95V71.095C84.95 76.995 86.24 82.165 88.83 86.655C91.42 91.145 94.99 94.645 99.53 97.185C104.15 99.695 109.44 100.965 115.35 100.965C121.26 100.965 126.5 99.755 131.03 97.325C135.65 94.815 139.22 91.285 141.73 86.815C144.32 82.325 145.62 77.105 145.62 71.115V31.815H127.44V70.645H127.43Z" fill="#121B3A"/>
<path d="M199.94 82.305C197.55 83.325 194.82 83.855 191.75 83.855C188.43 83.855 185.42 83.125 182.71 81.625C180.12 80.045 178.04 77.895 176.46 75.185C174.97 72.385 174.24 69.195 174.24 65.635C174.24 62.075 174.97 58.855 176.46 56.235C178.04 53.525 180.12 51.405 182.71 49.935C185.39 48.355 188.4 47.565 191.75 47.565C194.71 47.565 197.41 48.075 199.8 49.115C202.31 50.135 204.42 51.625 206.19 53.605L217.84 41.685C214.6 38.045 210.75 35.245 206.33 33.265C201.88 31.285 197.04 30.325 191.75 30.325C184.99 30.325 178.83 31.905 173.28 35.095C167.82 38.175 163.51 42.385 160.36 47.715C157.21 53.055 155.63 59.065 155.63 65.815C155.63 72.565 157.21 78.435 160.36 83.775C163.51 89.115 167.82 93.325 173.28 96.395C178.74 99.475 184.9 101.025 191.75 101.025C197.01 101.025 201.88 100.035 206.33 98.085C210.78 96.105 214.72 93.255 218.12 89.525L206.33 77.605C204.58 79.665 202.45 81.245 199.94 82.375V82.265V82.305Z" fill="#121B3A"/>
<path d="M266.77 82.305C264.35 83.325 261.65 83.855 258.58 83.855C255.26 83.855 252.25 83.125 249.57 81.625C246.98 80.045 244.9 77.895 243.32 75.185C241.83 72.385 241.1 69.195 241.1 65.635C241.1 62.075 241.83 58.855 243.32 56.235C244.9 53.525 246.98 51.405 249.57 49.935C252.25 48.355 255.26 47.565 258.58 47.565C261.54 47.565 264.24 48.075 266.63 49.115C269.14 50.135 271.25 51.625 273.02 53.605L284.67 41.685C281.43 38.045 277.58 35.245 273.16 33.265C268.71 31.285 263.87 30.325 258.58 30.325C251.82 30.325 245.66 31.905 240.11 35.095C234.65 38.175 230.34 42.385 227.19 47.715C224.04 53.055 222.46 59.065 222.46 65.815C222.46 72.565 224.04 78.435 227.19 83.775C230.34 89.115 234.65 93.325 240.11 96.395C245.57 99.475 251.74 101.025 258.58 101.025C263.84 101.025 268.71 100.035 273.16 98.085C277.61 96.105 281.55 93.255 284.96 89.525L273.16 77.605C271.42 79.665 269.28 81.245 266.77 82.375V82.265V82.305Z" fill="#121B3A"/>
<path d="M341.22 38.395C339.39 36.365 337.22 34.665 334.69 33.365C330.89 31.385 326.58 30.425 321.77 30.425C315.66 30.425 310.14 31.975 305.25 35.055C300.35 38.135 296.5 42.345 293.74 47.675C290.95 53.015 289.57 59.025 289.57 65.775C289.57 72.525 290.95 78.395 293.74 83.735C296.53 89.075 300.36 93.285 305.25 96.355C310.15 99.435 315.67 100.985 321.77 100.985C326.58 100.985 330.89 99.995 334.69 98.045C337.22 96.665 339.39 94.935 341.22 92.965V99.605H359.26V31.815H341.22V38.395ZM337.48 78.945C334.33 82.305 330.22 84.005 325.12 84.005C321.8 84.005 318.81 83.275 316.22 81.775C313.71 80.195 311.74 78.045 310.25 75.335C308.87 72.535 308.17 69.295 308.17 65.645C308.17 61.995 308.87 58.955 310.25 56.245C311.74 53.445 313.71 51.305 316.22 49.805C318.81 48.225 321.77 47.435 325.12 47.435C328.47 47.435 331.51 48.225 334.01 49.805C336.6 51.305 338.6 53.445 339.98 56.245C341.47 58.955 342.2 62.095 342.2 65.645C342.2 71.065 340.62 75.505 337.47 78.975V78.945H337.48Z" fill="#121B3A"/>
<path fill-rule="evenodd" clip-rule="evenodd" d="M522.16 32.005H415.56C396.9 32.005 381.73 47.225 381.73 65.955C381.73 84.685 396.9 99.905 415.56 99.905H522.16C540.82 99.905 556 84.685 556 65.955C556 47.225 540.83 32.005 522.16 32.005V32.005ZM417.19 50.475C406.32 48.385 396.95 57.815 399.03 68.695C400.18 74.795 405.08 79.685 411.13 80.865C422 82.955 431.37 73.525 429.29 62.645C428.14 56.545 423.24 51.655 417.19 50.505V50.475ZM456.12 47.795C456.12 46.495 457.16 45.365 458.54 45.365C459.83 45.365 460.96 46.495 460.96 47.795V84.085C460.96 85.465 459.83 86.515 458.54 86.515C457.16 86.515 456.12 85.475 456.12 84.085V47.795ZM495.36 55.845C493.98 55.845 492.94 56.975 492.94 58.275V60.055C489.56 56.835 484.75 55.225 479.6 56.185C473.49 57.315 468.59 62.225 467.47 68.355C465.7 78.045 473.1 86.515 482.5 86.515C486.53 86.515 490.21 84.995 492.94 82.395V84.085C492.94 85.465 493.98 86.515 495.36 86.515C496.65 86.515 497.78 85.475 497.78 84.085V58.275C497.78 56.975 496.65 55.845 495.36 55.845V55.845ZM482.52 81.655C476.75 81.655 472.08 76.965 472.08 71.175C472.08 65.385 476.72 60.695 482.52 60.695C488.32 60.695 492.96 65.465 492.96 71.175C492.96 76.885 488.23 81.655 482.52 81.655ZM510.44 60.055C513.82 56.835 518.63 55.225 523.7 56.185C529.81 57.315 534.71 62.225 535.83 68.355C537.58 78.045 530.2 86.515 520.88 86.515C516.85 86.515 513.17 84.965 510.44 82.395V84.085C510.44 85.465 509.31 86.515 508.02 86.515C506.64 86.515 505.6 85.475 505.6 84.085V47.885C505.6 46.505 506.64 45.375 508.02 45.375C509.32 45.375 510.44 46.505 510.44 47.885V60.055V60.055ZM510.44 71.185C510.44 76.975 515.11 81.665 520.88 81.665C526.65 81.665 531.32 76.895 531.32 71.185C531.32 65.475 526.68 60.705 520.88 60.705C515.08 60.705 510.44 65.395 510.44 71.185Z" fill="url(#paint0_linear_303_109)"/>
</g>
<defs>
<linearGradient id="paint0_linear_303_109" x1="556" y1="66" x2="382" y2="66" gradientUnits="userSpaceOnUse">
<stop stop-color="#12C9BE"/>
<stop offset="1" stop-color="#6A9AF8"/>
</linearGradient>
<clipPath id="clip0_303_109">
<rect width="556" height="100.11" fill="white" transform="translate(0 0.945007)"/>
</clipPath>
</defs>
</svg>
